<svg width="180" height="180" viewBox="0 0 180 180" fill="none" xmlns="http://www.w3.org/2000/svg">
<rect width="180" height="180" fill="#1C3879"/>
<g filter="url(#filter0_d_32_6)">
<path d="M73.94 45.82C66.8467 48.1533 61.34 52.0267 57.42 57.44C53.5933 62.76 51.68 69.3867 51.68 77.32C51.68 80.8667 52.0067 83.2933 52.66 84.6C53.3133 85.9067 53.64 86.7 53.64 86.98C43.6533 86.98 38.66 82.7333 38.66 74.24C38.66 68.4533 40.8533 62.6667 45.24 56.88C49.72 51 55.4133 46.24 62.32 42.6C69.32 38.8667 76.2733 37 83.18 37C86.6333 37 90.18 37.6533 93.82 38.96L90.6 112.74L121.4 38.96H141.56L126.86 142H106.7L115.66 79.14L89.34 142H70.16L72.96 78.86L49.58 142H38.38L73.94 45.82Z" fill="#EAE3D2"/>
</g>
<defs>
<filter id="filter0_d_32_6" x="34.38" y="37" width="111.18" height="113" filterUnits="userSpaceOnUse" color-interpolation-filters="sRGB">
<feFlood flood-opacity="0" result="BackgroundImageFix"/>
<feColorMatrix in="SourceAlpha" type="matrix" values="0 0 0 0 0 0 0 0 0 0 0 0 0 0 0 0 0 0 127 0" result="hardAlpha"/>
<feOffset dy="4"/>
<feGaussianBlur stdDeviation="2"/>
<feComposite in2="hardAlpha" operator="out"/>
<feColorMatrix type="matrix" values="0 0 0 0 0 0 0 0 0 0 0 0 0 0 0 0 0 0 0.25 0"/>
<feBlend mode="normal" in2="BackgroundImageFix" result="effect1_dropShadow_32_6"/>
<feBlend mode="normal" in="SourceGraphic" in2="effect1_dropShadow_32_6" result="shape"/>
</filter>
</defs>
</svg>
